# xmcd CD database file
#
# Track frame offsets:
#	150
#	28637
#	64717
#	67790
#
# Disc length: 1282 seconds
#
# Revision: 0
# Processed by: cddbd v1.5PL3 Copyright (c) Steve Scherf et al.
# Submitted via: CDex 1.50
#
DISCID=2a050004
DTITLE=小沢健二 - ドアをノックするのは誰だ？
DYEAR=1900
DGENRE=Pop
TTITLE0=ドアをノックするのは誰だ？(ボーイズ・ライフpt1：クリスマス・ストーリー)
TTITLE1=ドアをノックするのは誰だ？("THE LIFE SHOW" LIVE)
TTITLE2=ドアをノックするのは誰だ？(ドアノック失敗！)
TTITLE3=ドアをノックするのは誰だ？(オリジナル・カラオケ)
EXTD=
EXTT0=
EXTT1=
EXTT2=
EXTT3=
PLAYORDER=
